<?xml version="1.0" encoding="utf-8"?>
<!-- Generator: Adobe Illustrator 14.0.0, SVG Export Plug-In . SVG Version: 6.00 Build 43363)  -->
<!DOCTYPE svg PUBLIC "-//W3C//DTD SVG 1.1//EN" "http://www.w3.org/Graphics/SVG/1.1/DTD/svg11.dtd">
<svg version="1.1" id="dc" xmlns="http://www.w3.org/2000/svg" xmlns:xlink="http://www.w3.org/1999/xlink" x="0px" y="0px"
	 width="400px" height="300px" viewBox="0 0 400 300" enable-background="new 0 0 400 300" xml:space="preserve">
<path id="dc_1_" fill="#070909" d="M265.102,199.771c-25.26,1.83-35.877-3.66-35.877-3.66c36.976-45.028,0.366-91.521,0.366-91.521
	c6.955-5.857,35.511-5.491,35.511-5.491v17.207h36.242V65.785C222.27,62.489,199.57,82.258,199.57,82.258
	c-24.527-19.77-99.941-16.474-99.941-16.474l-0.732,92.62h37.707v-58.94c13.545-1.464,34.412,5.125,34.412,5.125
	c-34.778,50.888,0.366,91.156,0.366,91.156c-12.447,7.321-35.877,4.394-35.877,4.394V178.54H99.629v54.913
	c80.173,5.49,100.309-14.278,100.309-14.278c31.117,17.207,57.11,15.376,57.11,15.376l44.662,0.732v-56.379h-36.608V199.771z
	 M201.036,174.512c-17.572-25.626-1.099-47.591-1.099-47.591C218.242,149.619,201.036,174.512,201.036,174.512z"/>
<polygon id="star" fill="#070909" points="288.043,138.636 284.262,124.602 279.257,138.513 265.833,132.9 273.766,145.226 
	261.686,152.913 275.718,154.133 273.645,168.532 283.527,158.404 293.29,168.532 291.704,154.254 306.104,152.913 293.9,145.347 
	301.589,133.388 "/>
</svg>
