<svg width="24" height="24" viewBox="0 0 24 24" fill="none" xmlns="http://www.w3.org/2000/svg">
<path d="M21.5798 16.9757C21.588 16.9658 21.5951 16.9553 21.6027 16.945C21.6096 16.9357 21.6169 16.9266 21.6234 16.9169C21.6313 16.9052 21.6381 16.8931 21.6452 16.8811C21.6505 16.872 21.6562 16.8632 21.6612 16.854C21.6676 16.842 21.6731 16.8296 21.6789 16.8173C21.6835 16.8074 21.6885 16.7976 21.6927 16.7874C21.6976 16.7755 21.7016 16.7635 21.7059 16.7515C21.7099 16.7403 21.7141 16.7294 21.7175 16.7181C21.7212 16.706 21.7239 16.6937 21.727 16.6815C21.7299 16.67 21.7331 16.6586 21.7354 16.6469C21.7382 16.6327 21.74 16.6183 21.742 16.604C21.7434 16.5941 21.7452 16.5843 21.7463 16.5743C21.7512 16.5249 21.7512 16.4752 21.7463 16.4258C21.7452 16.4158 21.7434 16.406 21.742 16.3961C21.74 16.3818 21.7382 16.3674 21.7354 16.3532C21.7331 16.3415 21.7299 16.3301 21.727 16.3186C21.7239 16.3064 21.7212 16.2941 21.7175 16.282C21.7141 16.2707 21.7099 16.2598 21.7059 16.2486C21.7016 16.2367 21.6976 16.2246 21.6927 16.2127C21.6885 16.2025 21.6835 16.1927 21.6789 16.1828C21.6731 16.1705 21.6676 16.1581 21.6612 16.1462C21.6562 16.1369 21.6505 16.1281 21.6452 16.119C21.6381 16.107 21.6313 16.0949 21.6234 16.0833C21.6169 16.0736 21.6096 16.0644 21.6027 16.0551C21.5951 16.0448 21.588 16.0343 21.5798 16.0244C21.5673 16.0092 21.5539 15.9948 21.5403 15.9807C21.5368 15.9771 21.5339 15.9732 21.5304 15.9697L18.5304 12.9697C18.3897 12.829 18.1989 12.75 18 12.75C17.8011 12.75 17.6103 12.829 17.4696 12.9697C17.329 13.1103 17.25 13.3011 17.25 13.5001C17.25 13.699 17.329 13.8898 17.4696 14.0304L19.1894 15.7501H3C2.80109 15.7501 2.61032 15.8291 2.46967 15.9697C2.32902 16.1104 2.25 16.3011 2.25 16.5001C2.25 16.699 2.32902 16.8897 2.46967 17.0304C2.61032 17.171 2.80109 17.2501 3 17.2501H19.1894L17.4696 18.9697C17.329 19.1104 17.25 19.3011 17.25 19.5001C17.25 19.699 17.329 19.8898 17.4696 20.0304C17.6103 20.1711 17.8011 20.2501 18 20.2501C18.1989 20.2501 18.3897 20.1711 18.5304 20.0304L21.5304 17.0304C21.5341 17.0266 21.5373 17.0225 21.541 17.0187C21.5544 17.0047 21.5675 16.9906 21.5798 16.9757Z" fill="white"/>
<path d="M2.39719 7.0551C2.39028 7.06444 2.383 7.07355 2.3765 7.08326C2.36867 7.09493 2.36185 7.10701 2.35475 7.11901C2.3494 7.12807 2.34372 7.13686 2.33873 7.14615C2.33228 7.15815 2.32683 7.17051 2.32106 7.18277C2.31639 7.19271 2.31145 7.2025 2.30719 7.21271C2.30229 7.22457 2.29831 7.23665 2.29405 7.24865C2.29007 7.25977 2.28581 7.27066 2.28238 7.28202C2.27871 7.29411 2.27601 7.30637 2.27295 7.3186C2.27006 7.33013 2.26681 7.34148 2.26448 7.3532C2.26168 7.36744 2.25994 7.38181 2.25793 7.39614C2.25656 7.40603 2.25468 7.41578 2.25367 7.4258C2.24878 7.47518 2.24878 7.52492 2.25367 7.5743C2.25468 7.58433 2.25656 7.59408 2.25793 7.60397C2.25994 7.6183 2.26168 7.63267 2.26448 7.6469C2.26681 7.65862 2.27006 7.66998 2.27295 7.68151C2.27601 7.69373 2.27871 7.706 2.28238 7.71809C2.28581 7.72944 2.29006 7.74033 2.29405 7.75146C2.29831 7.76345 2.30229 7.77554 2.30719 7.7874C2.31144 7.7976 2.31639 7.8074 2.32106 7.81733C2.32683 7.8296 2.33228 7.84196 2.33873 7.85395C2.34372 7.86325 2.3494 7.87204 2.35475 7.8811C2.36185 7.89309 2.36867 7.90518 2.3765 7.91685C2.383 7.92656 2.39028 7.93567 2.39719 7.945C2.40479 7.9553 2.41197 7.96579 2.42017 7.97572C2.43239 7.99064 2.44557 8.00474 2.45894 8.01866C2.4626 8.0225 2.46581 8.02663 2.46956 8.03042L5.46956 11.0304C5.61022 11.1711 5.801 11.2501 5.99993 11.2501C6.19885 11.2501 6.38963 11.1711 6.53029 11.0304C6.67095 10.8898 6.74998 10.699 6.74998 10.5001C6.74998 10.3011 6.67095 10.1104 6.53029 9.96969L4.81056 8.25005H20.9999C21.1988 8.25005 21.3896 8.17103 21.5303 8.03038C21.6709 7.88973 21.7499 7.69896 21.7499 7.50005C21.7499 7.30114 21.6709 7.11037 21.5303 6.96972C21.3896 6.82907 21.1988 6.75005 20.9999 6.75005H4.81056L6.53029 5.03042C6.67095 4.88975 6.74998 4.69898 6.74998 4.50005C6.74998 4.30112 6.67095 4.11035 6.53029 3.96968C6.38963 3.82902 6.19885 3.75 5.99993 3.75C5.801 3.75 5.61022 3.82902 5.46956 3.96968L2.46956 6.96969C2.46604 6.97321 2.46311 6.9771 2.45967 6.98067C2.44603 6.99482 2.43262 7.00919 2.42017 7.02439C2.41197 7.03432 2.40479 7.0448 2.39719 7.0551Z" fill="white"/>
</svg>
