<svg width="24" height="24" viewBox="0 0 24 24" fill="none" xmlns="http://www.w3.org/2000/svg">
<path d="M15.7499 7.50002H4.81056L8.03029 4.28034C8.17093 4.13967 8.24995 3.9489 8.24994 3.74998C8.24993 3.55107 8.1709 3.3603 8.03024 3.21965C7.88958 3.079 7.6988 2.99999 7.49989 3C7.30097 3.00001 7.1102 3.07904 6.96956 3.2197L2.46955 7.7197C2.46669 7.72254 2.46429 7.7257 2.4615 7.72862C2.44717 7.74341 2.43316 7.75847 2.42009 7.7744C2.41206 7.7842 2.40503 7.79445 2.39757 7.80452C2.3905 7.81408 2.38308 7.82338 2.37645 7.83327C2.36869 7.84485 2.36192 7.85689 2.35486 7.86879C2.34946 7.8779 2.34372 7.88678 2.3387 7.89612C2.33232 7.90807 2.32685 7.92038 2.32115 7.9326C2.31646 7.94258 2.31144 7.95243 2.30719 7.96268C2.30229 7.97449 2.29833 7.98653 2.29407 7.99852C2.29009 8.00965 2.28581 8.02063 2.28235 8.03198C2.27871 8.04402 2.27601 8.05625 2.27299 8.06847C2.27011 8.08 2.26683 8.09145 2.2645 8.10321C2.26169 8.1174 2.25994 8.13173 2.25795 8.14606C2.25658 8.15599 2.25466 8.16569 2.25367 8.17577C2.24878 8.22514 2.24878 8.27489 2.25367 8.32427C2.25466 8.33434 2.25658 8.34404 2.25795 8.35397C2.25994 8.3683 2.26168 8.38263 2.2645 8.39682C2.26683 8.40858 2.27011 8.42003 2.27299 8.43156C2.27601 8.44378 2.27871 8.45601 2.28235 8.46805C2.28581 8.4794 2.29009 8.49039 2.29407 8.50151C2.29833 8.5135 2.30229 8.52554 2.30719 8.53735C2.31144 8.54761 2.31646 8.55745 2.32115 8.56743C2.32685 8.57965 2.33232 8.59196 2.3387 8.60391C2.34372 8.61325 2.34946 8.62213 2.35486 8.63124C2.36191 8.64314 2.36869 8.65518 2.37645 8.66676C2.38308 8.67665 2.3905 8.68594 2.39757 8.69551C2.40503 8.70558 2.41206 8.71583 2.42009 8.72563C2.43294 8.74124 2.44671 8.75607 2.46074 8.77058C2.46381 8.77379 2.46642 8.77722 2.46956 8.78033L6.96956 13.2803C7.0392 13.35 7.12188 13.4052 7.21287 13.4429C7.30387 13.4806 7.4014 13.5 7.49989 13.5C7.59838 13.5 7.69591 13.4806 7.78691 13.443C7.87791 13.4053 7.96059 13.35 8.03024 13.2804C8.09989 13.2107 8.15514 13.1281 8.19283 13.0371C8.23053 12.9461 8.24993 12.8485 8.24994 12.75C8.24994 12.6516 8.23055 12.554 8.19286 12.463C8.15517 12.372 8.09993 12.2893 8.03029 12.2197L4.81056 9.00002H15.7499C16.9434 9.00002 18.088 9.47412 18.9319 10.318C19.7758 11.162 20.2499 12.3065 20.2499 13.5C20.2499 14.6935 19.7758 15.8381 18.9319 16.682C18.088 17.5259 16.9434 18 15.7499 18H7.49992C7.30101 18 7.11024 18.079 6.96959 18.2197C6.82894 18.3603 6.74992 18.5511 6.74992 18.75C6.74992 18.9489 6.82894 19.1397 6.96959 19.2803C7.11024 19.421 7.30101 19.5 7.49992 19.5H15.7499C17.3412 19.5 18.8673 18.8679 19.9926 17.7427C21.1178 16.6174 21.7499 15.0913 21.7499 13.5C21.7499 11.9087 21.1178 10.3826 19.9926 9.25738C18.8673 8.13216 17.3412 7.50002 15.7499 7.50002Z" fill="white"/>
</svg>
