<svg width="32" height="32" viewBox="0 0 32 32" fill="none" xmlns="http://www.w3.org/2000/svg">
<path d="M30.9996 14.9926C30.9995 14.9821 30.9984 14.9716 30.998 14.9611C30.997 14.9333 30.9952 14.9058 30.9919 14.8786C30.9904 14.8668 30.9884 14.8551 30.9865 14.8433C30.9822 14.8163 30.977 14.7897 30.9706 14.7634C30.9681 14.7528 30.9654 14.7423 30.9625 14.7317C30.9541 14.7017 30.9444 14.6722 30.9333 14.6432C30.9314 14.6384 30.9304 14.6334 30.9284 14.6286L30.9222 14.6132L30.9209 14.6097L29.1799 10.2572C29.0325 9.88532 28.7766 9.56647 28.4453 9.34221C28.1141 9.11796 27.723 8.9987 27.323 9H23V8C23 7.73479 22.8946 7.48044 22.7071 7.29291C22.5195 7.10537 22.2652 7.00001 22 7H2.99997C2.46972 7.00061 1.96137 7.21151 1.58643 7.58646C1.21148 7.9614 1.00058 8.46975 0.999969 9V23C1.00058 23.5302 1.21148 24.0386 1.58643 24.4135C1.96137 24.7885 2.46972 24.9994 2.99997 25H4.62656C4.84836 25.8586 5.34918 26.6193 6.05031 27.1623C6.75144 27.7053 7.61314 28 8.49997 28C9.3868 28 10.2485 27.7053 10.9496 27.1623C11.6508 26.6193 12.1516 25.8586 12.3734 25H19.6266C19.8484 25.8586 20.3492 26.6193 21.0503 27.1623C21.7514 27.7053 22.6131 28 23.5 28C24.3868 28 25.2485 27.7053 25.9496 27.1623C26.6508 26.6193 27.1516 25.8586 27.3734 25H29C29.5302 24.9994 30.0386 24.7885 30.4135 24.4135C30.7885 24.0386 30.9994 23.5302 31 23V15C31 14.9975 30.9996 14.9951 30.9996 14.9926ZM23 11H27.323L28.5229 14H23V11ZM2.99997 9H21V17H2.99997V9ZM8.49997 26C8.10441 26 7.71773 25.8827 7.38883 25.6629C7.05993 25.4432 6.80359 25.1308 6.65221 24.7654C6.50084 24.3999 6.46123 23.9978 6.5384 23.6098C6.61557 23.2219 6.80605 22.8655 7.08576 22.5858C7.36546 22.3061 7.72183 22.1156 8.10979 22.0384C8.49775 21.9613 8.89989 22.0009 9.26534 22.1522C9.63079 22.3036 9.94315 22.56 10.1629 22.8889C10.3827 23.2178 10.5 23.6044 10.5 24C10.4994 24.5302 10.2885 25.0386 9.91351 25.4135C9.53857 25.7885 9.03022 25.9994 8.49997 26ZM23.5 26C23.1044 26 22.7177 25.8827 22.3888 25.6629C22.0599 25.4432 21.8036 25.1308 21.6522 24.7654C21.5008 24.3999 21.4612 23.9978 21.5384 23.6098C21.6156 23.2219 21.8061 22.8655 22.0858 22.5858C22.3655 22.3061 22.7218 22.1156 23.1098 22.0384C23.4978 21.9613 23.8999 22.0009 24.2653 22.1522C24.6308 22.3036 24.9431 22.56 25.1629 22.8889C25.3827 23.2178 25.5 23.6044 25.5 24C25.4994 24.5302 25.2885 25.0386 24.9135 25.4135C24.5386 25.7885 24.0302 25.9994 23.5 26Z" fill="black"/>
</svg>
