<svg width="32" height="32" viewBox="0 0 32 32" fill="none" xmlns="http://www.w3.org/2000/svg">
<path d="M15.9987 2.99915C13.9146 2.99976 11.8666 3.54303 10.0563 4.57549C8.24598 5.60795 6.73569 7.09402 5.67409 8.88742C4.6125 10.6808 4.03618 12.7197 4.00187 14.8035C3.96756 16.8873 4.47644 18.9441 5.47841 20.7714L4.49147 24.2217C4.40078 24.5383 4.39646 24.8734 4.47896 25.1922C4.56145 25.511 4.72775 25.8019 4.9606 26.0347C5.19345 26.2676 5.48437 26.4339 5.80318 26.5164C6.12198 26.5989 6.45705 26.5945 6.77362 26.5039L10.2248 25.5196C11.8288 26.3997 13.6127 26.9013 15.4403 26.9862C17.2679 27.0711 19.0907 26.737 20.7694 26.0094C22.448 25.2818 23.9381 24.18 25.1256 22.7882C26.3132 21.3965 27.1668 19.7516 27.6211 17.9794C28.0755 16.2071 28.1186 14.3545 27.7472 12.563C27.3758 10.7715 26.5997 9.08873 25.4782 7.64322C24.3566 6.19771 22.9195 5.02778 21.2765 4.22287C19.6335 3.41796 17.8282 2.99938 15.9987 2.99915ZM19.6905 17.7664H12.3068C12.0621 17.7664 11.8273 17.6692 11.6542 17.4961C11.4811 17.323 11.3839 17.0883 11.3839 16.8435C11.3839 16.5987 11.4811 16.3639 11.6542 16.1909C11.8273 16.0178 12.0621 15.9205 12.3068 15.9205H19.6905C19.9353 15.9205 20.17 16.0178 20.3431 16.1909C20.5162 16.3639 20.6134 16.5987 20.6134 16.8435C20.6134 17.0883 20.5162 17.323 20.3431 17.4961C20.17 17.6692 19.9353 17.7664 19.6905 17.7664ZM19.6905 14.0746H12.3068C12.0621 14.0746 11.8273 13.9774 11.6542 13.8043C11.4811 13.6312 11.3839 13.3964 11.3839 13.1517C11.3839 12.9069 11.4811 12.6721 11.6542 12.499C11.8273 12.3259 12.0621 12.2287 12.3068 12.2287H19.6905C19.9353 12.2287 20.17 12.3259 20.3431 12.499C20.5162 12.6721 20.6134 12.9069 20.6134 13.1517C20.6134 13.3964 20.5162 13.6312 20.3431 13.8043C20.17 13.9774 19.9353 14.0746 19.6905 14.0746Z" fill="white"/>
</svg>
