<svg width="70" height="48" viewBox="0 0 70 48" fill="none" xmlns="http://www.w3.org/2000/svg">
<rect width="70" height="48" rx="6" fill="white"/>
<path fill-rule="evenodd" clip-rule="evenodd" d="M35.395 34.7619C33.0119 36.8184 29.9205 38.0599 26.5426 38.0599C19.0052 38.0599 12.895 31.8788 12.895 24.254C12.895 16.6291 19.0052 10.448 26.5426 10.448C29.9205 10.448 33.0119 11.6895 35.395 13.7461C37.7782 11.6895 40.8695 10.448 44.2475 10.448C51.7848 10.448 57.895 16.6291 57.895 24.254C57.895 31.8788 51.7848 38.0599 44.2475 38.0599C40.8695 38.0599 37.7782 36.8184 35.395 34.7619Z" fill="#ED0006"/>
<path fill-rule="evenodd" clip-rule="evenodd" d="M35.395 34.7619C38.3294 32.2296 40.1901 28.4616 40.1901 24.254C40.1901 20.0463 38.3294 16.2783 35.395 13.7461C37.7782 11.6895 40.8695 10.448 44.2475 10.448C51.7848 10.448 57.895 16.6291 57.895 24.254C57.895 31.8788 51.7848 38.0599 44.2475 38.0599C40.8695 38.0599 37.7782 36.8184 35.395 34.7619Z" fill="#F9A000"/>
<path fill-rule="evenodd" clip-rule="evenodd" d="M35.3951 13.7461C38.3295 16.2784 40.1901 20.0463 40.1901 24.254C40.1901 28.4616 38.3295 32.2295 35.3951 34.7618C32.4608 32.2295 30.6001 28.4616 30.6001 24.254C30.6001 20.0463 32.4608 16.2784 35.3951 13.7461Z" fill="#FF5E00"/>
</svg>
