<svg width="70" height="48" viewBox="0 0 70 48" fill="none" xmlns="http://www.w3.org/2000/svg">
<rect width="70" height="48" rx="6" fill="white"/>
<path fill-rule="evenodd" clip-rule="evenodd" d="M30.0877 36.8964L30.5421 33.9982L29.5298 33.9745H24.6958L28.0553 12.5873C28.0657 12.5225 28.0996 12.4624 28.149 12.4196C28.1986 12.3769 28.2619 12.3534 28.3281 12.3534H36.4789C39.1851 12.3534 41.0525 12.9187 42.0273 14.0345C42.4844 14.558 42.7755 15.1052 42.9165 15.7071C43.0642 16.3389 43.0667 17.0936 42.9226 18.0142L42.9121 18.0811V18.6711L43.3692 18.9311C43.754 19.1362 44.06 19.3708 44.2946 19.6394C44.6855 20.0871 44.9384 20.656 45.0453 21.3303C45.1558 22.0239 45.1193 22.8494 44.9384 23.784C44.7298 24.8588 44.3927 25.7951 43.9373 26.561C43.5187 27.2668 42.9851 27.8523 42.3515 28.3059C41.7467 28.737 41.0282 29.0643 40.2157 29.2737C39.4283 29.4795 38.5306 29.5833 37.546 29.5833H36.9117C36.4583 29.5833 36.0177 29.7473 35.6718 30.0413C35.325 30.3414 35.0957 30.7515 35.0253 31.2L34.9774 31.461L34.1744 36.5695L34.1381 36.7569C34.1284 36.8163 34.1119 36.8459 34.0875 36.8659C34.0658 36.8842 34.0347 36.8964 34.0043 36.8964H30.0877Z" fill="#28356A"/>
<path fill-rule="evenodd" clip-rule="evenodd" d="M43.8028 18.1493C43.7787 18.3055 43.7507 18.465 43.7195 18.629C42.6446 24.1703 38.9671 26.0846 34.2704 26.0846H31.8789C31.3045 26.0846 30.8204 26.5033 30.731 27.0722L29.1599 37.0787C29.1017 37.4524 29.3884 37.7889 29.7637 37.7889H34.0053C34.5074 37.7889 34.9341 37.4226 35.0132 36.9252L35.0548 36.7089L35.8535 31.6205L35.9048 31.3414C35.9829 30.8424 36.4106 30.4758 36.9127 30.4758H37.5471C41.6564 30.4758 44.8735 28.8008 45.8138 23.953C46.2064 21.928 46.0031 20.2371 44.9638 19.0479C44.6493 18.6894 44.2591 18.3917 43.8028 18.1493Z" fill="#298FC2"/>
<path fill-rule="evenodd" clip-rule="evenodd" d="M42.6774 17.6992C42.5131 17.6511 42.3437 17.6076 42.1699 17.5683C41.9952 17.5299 41.8163 17.4959 41.632 17.4661C40.9872 17.3615 40.2806 17.3119 39.5239 17.3119H33.1353C32.9778 17.3119 32.8284 17.3476 32.6947 17.4121C32.4 17.5543 32.1811 17.8344 32.1281 18.1773L30.7689 26.8203L30.73 27.0723C30.8193 26.5034 31.3034 26.0847 31.8779 26.0847H34.2693C38.966 26.0847 42.6436 24.1695 43.7185 18.6291C43.7506 18.4652 43.7776 18.3056 43.8017 18.1494C43.5298 18.0045 43.2353 17.8806 42.9181 17.775C42.8398 17.7489 42.759 17.7237 42.6774 17.6992Z" fill="#22284F"/>
<path fill-rule="evenodd" clip-rule="evenodd" d="M32.1287 18.1772C32.1817 17.8344 32.4005 17.5543 32.6953 17.413C32.8299 17.3483 32.9784 17.3126 33.1359 17.3126H39.5245C40.2812 17.3126 40.9878 17.3625 41.6326 17.4671C41.8168 17.4966 41.9957 17.5308 42.1705 17.5692C42.3443 17.6083 42.5137 17.6521 42.678 17.7C42.7595 17.7244 42.8404 17.7498 42.9195 17.775C43.2366 17.8806 43.5314 18.0054 43.8033 18.1494C44.1231 16.1016 43.8006 14.7074 42.698 13.4449C41.4822 12.0548 39.2881 11.46 36.4805 11.46H28.3294C27.7559 11.46 27.2667 11.8786 27.1781 12.4485L23.7831 34.0557C23.7162 34.4831 24.0445 34.8688 24.4739 34.8688H29.506L32.1287 18.1772Z" fill="#28356A"/>
</svg>
