<svg width="172" height="60" viewBox="0 0 172 60" fill="none" xmlns="http://www.w3.org/2000/svg">
<path d="M86.1201 33.43C86.1201 36.03 85.3601 38.03 83.8301 39.43C82.3001 40.83 80.1101 41.53 77.2501 41.53C75.2501 41.53 73.5301 41.16 72.0601 40.43C70.6001 39.7 69.6701 38.46 69.6701 38.46C69.2401 37.86 69.2701 36.96 69.7701 36.43L71.3701 34.63C71.8701 34.1 72.5701 34.16 72.9301 34.76C72.9301 34.76 73.2601 35.33 74.2301 35.93C75.1601 36.53 76.1901 36.83 77.2901 36.83C78.4201 36.83 79.2501 36.56 79.8201 36.06C80.3901 35.53 80.6801 34.79 80.6801 33.79C80.6801 32.92 80.2801 32.12 79.5201 31.42C78.7601 30.72 77.3901 29.82 75.4301 28.75C73.3001 27.55 71.7701 26.35 70.9101 25.12C70.0501 23.89 69.5801 22.45 69.5801 20.79C69.5801 18.46 70.3401 16.59 71.8701 15.22C73.4001 13.85 75.4601 13.15 78.0901 13.15C79.6901 13.15 81.0801 13.45 82.2801 14.05C83.4801 14.65 84.4401 15.72 84.4401 15.72C84.9101 16.25 84.9101 17.15 84.4101 17.69L82.9501 19.29C82.4501 19.82 81.7201 19.79 81.2901 19.19C81.2901 19.19 81.1601 18.99 80.3901 18.56C79.6301 18.09 78.8301 17.86 78.0301 17.86C77.1001 17.86 76.3301 18.09 75.8001 18.59C75.2301 19.09 74.9701 19.69 74.9701 20.39C74.9701 21.82 77.7601 23.86 77.7601 23.86C78.3601 24.29 79.0201 24.73 79.2601 24.86C79.4901 24.99 80.4201 25.56 81.0601 25.93C81.0601 25.93 83.8201 27.73 84.7501 28.96C85.6201 30.2 86.1201 31.7 86.1201 33.43Z" fill="white"/>
<path d="M94.4001 39.6301C94.4001 40.3601 93.8001 40.9601 93.0701 40.9601H90.4101C89.6801 40.9601 89.0801 40.3601 89.0801 39.6301V15.0301C89.0801 14.3001 89.6801 13.7001 90.4101 13.7001H93.0701C93.8001 13.7001 94.4001 14.3001 94.4001 15.0301V39.6301Z" fill="white"/>
<path d="M121.8 39.6301C121.8 40.3601 121.2 40.9601 120.47 40.9601H117.91C117.18 40.9601 116.25 40.4601 115.85 39.8601L104.68 23.6601C104.28 23.0601 103.92 23.1601 103.92 23.8901V39.6201C103.92 40.3501 103.32 40.9501 102.59 40.9501H100.03C99.3002 40.9501 98.7002 40.3501 98.7002 39.6201V15.0201C98.7002 14.2901 99.3002 13.6901 100.03 13.6901H102.59C103.32 13.6901 104.25 14.1901 104.65 14.7901L115.79 30.9201C116.19 31.5201 116.55 31.4201 116.55 30.6901V15.0301C116.55 14.3001 117.15 13.7001 117.88 13.7001H120.44C121.17 13.7001 121.77 14.3001 121.77 15.0301V39.6301H121.8Z" fill="white"/>
<path d="M145.74 29.03C145.74 29.76 145.67 30.93 145.57 31.66C145.57 31.66 144.91 36.73 143.18 38.63C141.48 40.56 139.02 41.5 135.83 41.5C132.67 41.5 130.24 40.5 128.51 38.53C126.78 36.56 126.08 31.63 126.08 31.63C125.98 30.9 125.91 29.73 125.91 29V15C125.91 14.27 126.51 13.67 127.24 13.67H130.07C130.8 13.67 131.4 14.27 131.4 15V29.93C131.4 30.66 131.47 31.83 131.57 32.56C131.57 32.56 131.8 34.33 132.53 35.23C133.29 36.13 134.39 36.6 135.82 36.6C137.32 36.6 138.45 36.17 139.18 35.27C139.91 34.4 140.11 32.57 140.11 32.57C140.21 31.84 140.28 30.67 140.28 29.94V15.04C140.28 14.31 140.88 13.71 141.61 13.71H144.44C145.17 13.71 145.77 14.31 145.77 15.04V29.04H145.74V29.03Z" fill="white"/>
<path d="M165.4 33.43C165.4 36.03 164.64 38.03 163.11 39.43C161.58 40.83 159.38 41.53 156.53 41.53C154.53 41.53 152.8 41.16 151.34 40.43C149.88 39.7 148.95 38.46 148.95 38.46C148.52 37.86 148.55 36.96 149.05 36.43L150.65 34.63C151.15 34.1 151.85 34.16 152.21 34.76C152.21 34.76 152.54 35.33 153.51 35.93C154.44 36.53 155.47 36.83 156.57 36.83C157.7 36.83 158.53 36.56 159.1 36.06C159.67 35.53 159.97 34.79 159.97 33.79C159.97 32.92 159.57 32.12 158.81 31.42C158.05 30.72 156.68 29.82 154.72 28.75C152.59 27.55 151.06 26.35 150.2 25.12C149.34 23.89 148.87 22.45 148.87 20.79C148.87 18.46 149.63 16.59 151.16 15.22C152.69 13.85 154.75 13.15 157.38 13.15C158.98 13.15 160.37 13.45 161.57 14.05C162.77 14.65 163.73 15.72 163.73 15.72C164.2 16.25 164.2 17.15 163.7 17.69L162.24 19.29C161.74 19.82 161.01 19.79 160.58 19.19C160.58 19.19 160.45 18.99 159.68 18.56C158.92 18.09 158.12 17.86 157.32 17.86C156.39 17.86 155.62 18.09 155.09 18.59C154.53 19.09 154.26 19.69 154.26 20.39C154.26 21.82 157.05 23.86 157.05 23.86C157.65 24.29 158.31 24.73 158.55 24.86C158.78 24.99 159.71 25.56 160.35 25.93C160.35 25.93 163.11 27.73 164.04 28.96C164.93 30.2 165.4 31.7 165.4 33.43Z" fill="white"/>
<path d="M29.6502 59.1C45.9202 59.1 59.1102 45.88 59.1102 29.57C59.1102 13.26 45.9202 0.0400391 29.6502 0.0400391C13.3802 0.0400391 0.180176 13.26 0.180176 29.57C0.180176 45.88 13.3702 59.1 29.6502 59.1Z" fill="white"/>
<path d="M47.51 21.93V37.2C47.51 37.73 47.08 38.17 46.55 38.17C46.02 38.17 45.59 37.74 45.59 37.2V21.93C45.59 20.13 44.13 18.66 42.33 18.66C40.53 18.66 39.07 20.13 39.07 21.93V37.2C39.07 40.07 36.74 42.4 33.88 42.4C31.02 42.4 28.69 40.07 28.69 37.2V21.93C28.69 20.13 27.23 18.66 25.43 18.66C23.63 18.66 22.17 20.13 22.17 21.93V37.2C22.17 40.07 19.84 42.4 16.98 42.4C14.12 42.4 11.79 40.07 11.79 37.2V21.93C11.79 21.4 12.22 20.96 12.75 20.96C13.28 20.96 13.71 21.39 13.71 21.93V37.2C13.71 39 15.17 40.47 16.97 40.47C18.77 40.47 20.23 39 20.23 37.2V21.93C20.23 19.06 22.56 16.73 25.42 16.73C28.28 16.73 30.61 19.06 30.61 21.93V37.2C30.61 39 32.07 40.47 33.87 40.47C35.67 40.47 37.13 39 37.13 37.2V21.93C37.13 19.06 39.46 16.73 42.32 16.73C45.18 16.73 47.51 19.07 47.51 21.93Z" fill="#020203"/>
<path d="M73.76 51.8C73.76 52.37 73.55 52.81 73.14 53.12C72.73 53.44 72.17 53.59 71.47 53.59C70.71 53.59 70.12 53.49 69.71 53.3V52.58C69.97 52.69 70.26 52.78 70.57 52.84C70.88 52.9 71.19 52.94 71.49 52.94C71.99 52.94 72.36 52.85 72.61 52.66C72.86 52.47 72.99 52.21 72.99 51.87C72.99 51.65 72.94 51.47 72.85 51.33C72.76 51.19 72.61 51.05 72.4 50.93C72.19 50.81 71.87 50.67 71.45 50.52C70.85 50.31 70.42 50.05 70.17 49.76C69.92 49.47 69.79 49.08 69.79 48.61C69.79 48.11 69.98 47.72 70.35 47.43C70.72 47.14 71.21 46.99 71.83 46.99C72.47 46.99 73.06 47.11 73.59 47.34L73.36 47.99C72.83 47.77 72.31 47.66 71.81 47.66C71.41 47.66 71.11 47.75 70.88 47.91C70.66 48.08 70.55 48.32 70.55 48.62C70.55 48.84 70.59 49.03 70.67 49.17C70.75 49.31 70.89 49.44 71.08 49.56C71.28 49.68 71.58 49.81 71.98 49.95C72.65 50.19 73.12 50.45 73.37 50.72C73.63 51 73.76 51.36 73.76 51.8ZM81.51 53.51H80.63L78.29 50.39L77.62 50.99V53.51H76.87V47.09H77.62V50.28L80.53 47.09H81.41L78.83 49.88L81.51 53.51ZM88.24 53.51L87.44 51.47H84.86L84.07 53.51H83.31L85.85 47.06H86.48L89.01 53.51H88.24ZM87.2 50.79L86.45 48.8C86.35 48.55 86.25 48.24 86.15 47.87C86.09 48.15 85.99 48.46 85.87 48.8L85.11 50.79H87.2ZM93.67 53.51H92.92V47.75H90.89V47.09H95.71V47.75H93.68V53.51H93.67ZM102.06 53.51H98.48V47.09H102.06V47.75H99.23V49.82H101.89V50.48H99.23V52.84H102.06V53.51ZM105.29 47.08H107.11C107.96 47.08 108.58 47.21 108.96 47.46C109.34 47.71 109.53 48.12 109.53 48.67C109.53 49.05 109.42 49.37 109.21 49.61C109 49.86 108.69 50.02 108.28 50.09V50.13C109.25 50.3 109.74 50.81 109.74 51.67C109.74 52.24 109.55 52.69 109.16 53.01C108.77 53.33 108.23 53.49 107.53 53.49H105.29V47.08ZM106.03 49.83H107.26C107.79 49.83 108.17 49.75 108.4 49.58C108.63 49.41 108.75 49.13 108.75 48.74C108.75 48.38 108.62 48.12 108.36 47.96C108.1 47.8 107.69 47.72 107.13 47.72H106.03V49.83ZM106.03 50.47V52.87H107.37C107.89 52.87 108.28 52.77 108.54 52.57C108.8 52.37 108.93 52.05 108.93 51.63C108.93 51.23 108.8 50.94 108.53 50.75C108.26 50.56 107.86 50.47 107.31 50.47H106.03ZM118.5 50.29C118.5 51.32 118.24 52.13 117.72 52.72C117.2 53.31 116.48 53.6 115.55 53.6C114.6 53.6 113.87 53.31 113.36 52.73C112.85 52.15 112.59 51.33 112.59 50.28C112.59 49.23 112.85 48.42 113.36 47.85C113.87 47.27 114.61 46.98 115.56 46.98C116.48 46.98 117.2 47.27 117.72 47.86C118.24 48.45 118.5 49.25 118.5 50.29ZM113.38 50.29C113.38 51.16 113.56 51.82 113.93 52.27C114.3 52.72 114.84 52.94 115.55 52.94C116.26 52.94 116.8 52.72 117.16 52.27C117.52 51.82 117.7 51.16 117.7 50.29C117.7 49.43 117.52 48.77 117.16 48.33C116.8 47.88 116.26 47.66 115.56 47.66C114.85 47.66 114.31 47.89 113.93 48.34C113.56 48.77 113.38 49.43 113.38 50.29ZM125.77 53.51L124.97 51.47H122.39L121.6 53.51H120.84L123.38 47.06H124.01L126.54 53.51H125.77ZM124.74 50.79L124 48.8C123.9 48.55 123.8 48.24 123.7 47.87C123.63 48.15 123.54 48.46 123.42 48.8L122.66 50.79H124.74ZM129.98 50.84V53.51H129.23V47.09H130.99C131.78 47.09 132.36 47.24 132.73 47.54C133.11 47.84 133.3 48.3 133.3 48.9C133.3 49.75 132.87 50.32 132.01 50.62L133.75 53.51H132.87L131.32 50.84H129.98ZM129.98 50.19H131C131.53 50.19 131.91 50.09 132.16 49.88C132.41 49.67 132.53 49.35 132.53 48.94C132.53 48.52 132.4 48.21 132.15 48.02C131.9 47.83 131.5 47.74 130.95 47.74H129.98V50.19ZM141.72 50.23C141.72 51.29 141.43 52.1 140.85 52.66C140.28 53.22 139.45 53.5 138.37 53.5H136.59V47.08H138.56C139.56 47.08 140.34 47.36 140.89 47.91C141.45 48.47 141.72 49.24 141.72 50.23ZM140.93 50.26C140.93 49.42 140.72 48.79 140.3 48.37C139.88 47.95 139.26 47.73 138.43 47.73H137.34V52.86H138.25C139.14 52.86 139.81 52.64 140.26 52.21C140.71 51.77 140.93 51.12 140.93 50.26ZM148.59 51.8C148.59 52.37 148.38 52.81 147.97 53.12C147.56 53.44 147 53.59 146.3 53.59C145.54 53.59 144.95 53.49 144.54 53.3V52.58C144.8 52.69 145.09 52.78 145.4 52.84C145.71 52.9 146.02 52.94 146.32 52.94C146.82 52.94 147.19 52.85 147.44 52.66C147.69 52.47 147.82 52.21 147.82 51.87C147.82 51.65 147.77 51.47 147.68 51.33C147.59 51.19 147.44 51.05 147.23 50.93C147.02 50.81 146.7 50.67 146.28 50.52C145.68 50.31 145.25 50.05 145 49.76C144.75 49.47 144.62 49.08 144.62 48.61C144.62 48.11 144.81 47.72 145.18 47.43C145.55 47.14 146.04 46.99 146.66 46.99C147.3 46.99 147.89 47.11 148.42 47.34L148.19 47.99C147.66 47.77 147.14 47.66 146.64 47.66C146.24 47.66 145.94 47.75 145.71 47.91C145.49 48.08 145.38 48.32 145.38 48.62C145.38 48.84 145.42 49.03 145.5 49.17C145.58 49.31 145.72 49.44 145.91 49.56C146.11 49.68 146.4 49.81 146.81 49.95C147.48 50.19 147.95 50.45 148.2 50.72C148.46 51 148.59 51.36 148.59 51.8Z" fill="white"/>
</svg>
