<svg width="118" height="42" viewBox="0 0 118 42" fill="none" xmlns="http://www.w3.org/2000/svg">
<path d="M61.3782 23.7451C61.3782 25.594 60.8354 27.0163 59.7427 28.0119C58.65 29.0075 57.0859 29.5053 55.0433 29.5053C53.6149 29.5053 52.3864 29.2422 51.3366 28.7231C50.2938 28.2039 49.6296 27.3221 49.6296 27.3221C49.3225 26.8954 49.3439 26.2554 49.701 25.8785L50.8438 24.5984C51.2009 24.2215 51.7008 24.2642 51.9579 24.6909C51.9579 24.6909 52.1936 25.0962 52.8864 25.5229C53.5506 25.9496 54.2862 26.1629 55.0718 26.1629C55.8789 26.1629 56.4717 25.9709 56.8787 25.6154C57.2858 25.2385 57.493 24.7122 57.493 24.0011C57.493 23.3824 57.2073 22.8135 56.6645 22.3157C56.1217 21.8179 55.1432 21.1778 53.7434 20.4169C52.2222 19.5636 51.1294 18.7102 50.5152 17.8355C49.901 16.9608 49.5653 15.9367 49.5653 14.7562C49.5653 13.0993 50.1081 11.7694 51.2009 10.7952C52.2936 9.82092 53.7648 9.32312 55.6432 9.32312C56.7859 9.32312 57.7786 9.53646 58.6357 9.96315C59.4927 10.3898 60.1783 11.1508 60.1783 11.1508C60.514 11.5277 60.514 12.1677 60.1569 12.5517L59.1142 13.6895C58.7571 14.0664 58.2357 14.0451 57.9286 13.6184C57.9286 13.6184 57.8358 13.4762 57.2858 13.1704C56.743 12.8362 56.1717 12.6726 55.6003 12.6726C54.9361 12.6726 54.3862 12.8362 54.0077 13.1917C53.6006 13.5473 53.4149 13.974 53.4149 14.4718C53.4149 15.4887 55.4075 16.9394 55.4075 16.9394C55.836 17.2452 56.3074 17.5581 56.4788 17.6506C56.6431 17.743 57.3073 18.1484 57.7644 18.4115C57.7644 18.4115 59.7355 19.6916 60.3997 20.5663C61.0211 21.4481 61.3782 22.5148 61.3782 23.7451Z" fill="#020203"/>
<path d="M67.2917 28.1541C67.2917 28.6733 66.8632 29.0999 66.3418 29.0999H64.4421C63.9207 29.0999 63.4922 28.6733 63.4922 28.1541V10.6601C63.4922 10.1409 63.9207 9.71423 64.4421 9.71423H66.3418C66.8632 9.71423 67.2917 10.1409 67.2917 10.6601V28.1541Z" fill="#020203"/>
<path d="M86.8608 28.1542C86.8608 28.6733 86.4323 29.1 85.9109 29.1H84.0826C83.5612 29.1 82.897 28.7444 82.6113 28.3177L74.6337 16.7972C74.348 16.3705 74.0909 16.4417 74.0909 16.9608V28.147C74.0909 28.6662 73.6624 29.0929 73.141 29.0929H71.3127C70.7913 29.0929 70.3628 28.6662 70.3628 28.147V10.653C70.3628 10.1338 70.7913 9.70715 71.3127 9.70715H73.141C73.6624 9.70715 74.3266 10.0627 74.6123 10.4894L82.5685 21.9601C82.8541 22.3868 83.1112 22.3157 83.1112 21.7966V10.6601C83.1112 10.1409 83.5398 9.71426 84.0611 9.71426H85.8895C86.4108 9.71426 86.8394 10.1409 86.8394 10.6601V28.1542H86.8608Z" fill="#020203"/>
<path d="M103.959 20.616C103.959 21.1351 103.909 21.9672 103.838 22.4863C103.838 22.4863 103.366 26.0918 102.131 27.443C100.916 28.8155 99.1595 29.4839 96.8812 29.4839C94.6244 29.4839 92.8889 28.7728 91.6533 27.3718C90.4177 25.9709 89.9178 22.465 89.9178 22.465C89.8464 21.9458 89.7964 21.1138 89.7964 20.5947V10.6387C89.7964 10.1196 90.2249 9.69287 90.7463 9.69287H92.7675C93.2888 9.69287 93.7173 10.1196 93.7173 10.6387V21.256C93.7173 21.7752 93.7673 22.6072 93.8388 23.1263C93.8388 23.1263 94.003 24.3851 94.5244 25.0251C95.0672 25.6651 95.8528 25.9993 96.8741 25.9993C97.9454 25.9993 98.7524 25.6936 99.2738 25.0535C99.7952 24.4348 99.938 23.1334 99.938 23.1334C100.009 22.6143 100.059 21.7823 100.059 21.2631V10.6671C100.059 10.148 100.488 9.72132 101.009 9.72132H103.03C103.552 9.72132 103.98 10.148 103.98 10.6671V20.6231H103.959V20.616Z" fill="#020203"/>
<path d="M118 23.7451C118 25.594 117.457 27.0163 116.364 28.0119C115.272 29.0075 113.7 29.5053 111.665 29.5053C110.236 29.5053 109.001 29.2422 107.958 28.7231C106.915 28.2039 106.251 27.3221 106.251 27.3221C105.944 26.8954 105.966 26.2554 106.323 25.8785L107.465 24.5984C107.822 24.2215 108.322 24.2642 108.58 24.6909C108.58 24.6909 108.815 25.0962 109.508 25.5229C110.172 25.9496 110.908 26.1629 111.693 26.1629C112.5 26.1629 113.093 25.9709 113.5 25.6154C113.907 25.2385 114.122 24.7122 114.122 24.0011C114.122 23.3824 113.836 22.8135 113.293 22.3157C112.75 21.8179 111.772 21.1778 110.372 20.4169C108.851 19.5636 107.758 18.7102 107.144 17.8355C106.53 16.9608 106.194 15.9367 106.194 14.7562C106.194 13.0993 106.737 11.7694 107.83 10.7952C108.922 9.82092 110.394 9.32312 112.272 9.32312C113.415 9.32312 114.407 9.53646 115.264 9.96315C116.121 10.3898 116.807 11.1508 116.807 11.1508C117.143 11.5277 117.143 12.1677 116.786 12.5517L115.743 13.6895C115.386 14.0664 114.864 14.0451 114.557 13.6184C114.557 13.6184 114.464 13.4762 113.915 13.1704C113.372 12.8362 112.8 12.6726 112.229 12.6726C111.565 12.6726 111.015 12.8362 110.636 13.1917C110.236 13.5473 110.044 13.974 110.044 14.4718C110.044 15.4887 112.036 16.9394 112.036 16.9394C112.465 17.2452 112.936 17.5581 113.108 17.6506C113.272 17.743 113.936 18.1484 114.393 18.4115C114.393 18.4115 116.364 19.6916 117.028 20.5663C117.664 21.4481 118 22.5148 118 23.7451Z" fill="#020203"/>
<path d="M21.0475 42C32.6675 42 42.0878 32.5987 42.0878 21C42.0878 9.40129 32.6675 0 21.0475 0C9.42743 0 0 9.40129 0 21C0 32.5987 9.42029 42 21.0475 42Z" fill="#999999"/>
<path d="M33.8032 15.5668V26.426C33.8032 26.8029 33.4961 27.1158 33.1176 27.1158C32.739 27.1158 32.4319 26.81 32.4319 26.426V15.5668C32.4319 14.2868 31.3892 13.2414 30.1036 13.2414C28.8181 13.2414 27.7754 14.2868 27.7754 15.5668V26.426C27.7754 28.4669 26.1113 30.1239 24.0687 30.1239C22.026 30.1239 20.362 28.4669 20.362 26.426V15.5668C20.362 14.2868 19.3192 13.2414 18.0337 13.2414C16.7481 13.2414 15.7054 14.2868 15.7054 15.5668V26.426C15.7054 28.4669 14.0413 30.1239 11.9987 30.1239C9.95608 30.1239 8.29199 28.4669 8.29199 26.426V15.5668C8.29199 15.1899 8.5991 14.877 8.97762 14.877C9.35615 14.877 9.66325 15.1828 9.66325 15.5668V26.426C9.66325 27.706 10.706 28.7514 11.9915 28.7514C13.2771 28.7514 14.3198 27.706 14.3198 26.426V15.5668C14.3198 13.5259 15.9839 11.8689 18.0265 11.8689C20.0691 11.8689 21.7332 13.5259 21.7332 15.5668V26.426C21.7332 27.706 22.776 28.7514 24.0615 28.7514C25.3471 28.7514 26.3898 27.706 26.3898 26.426V15.5668C26.3898 13.5259 28.0539 11.8689 30.0965 11.8689C32.1391 11.8689 33.8032 13.533 33.8032 15.5668Z" fill="white"/>
<path d="M52.5507 36.8086C52.5507 37.2139 52.4007 37.5268 52.1079 37.7473C51.8151 37.9748 51.4151 38.0815 50.9152 38.0815C50.3724 38.0815 49.951 38.0104 49.6582 37.8753V37.3632C49.8439 37.4415 50.051 37.5055 50.2724 37.5481C50.4938 37.5908 50.7152 37.6193 50.9295 37.6193C51.2866 37.6193 51.5508 37.5553 51.7294 37.4201C51.9079 37.285 52.0008 37.1001 52.0008 36.8583C52.0008 36.7019 51.9651 36.5739 51.9008 36.4743C51.8365 36.3748 51.7294 36.2752 51.5794 36.1899C51.4294 36.1045 51.2009 36.005 50.9009 35.8983C50.4724 35.749 50.1653 35.5641 49.9867 35.3578C49.8082 35.1516 49.7153 34.8743 49.7153 34.54C49.7153 34.1844 49.851 33.9071 50.1153 33.7009C50.3795 33.4946 50.7295 33.388 51.1723 33.388C51.6294 33.388 52.0508 33.4733 52.4293 33.6369L52.265 34.0991C51.8865 33.9427 51.5151 33.8644 51.158 33.8644C50.8723 33.8644 50.6581 33.9284 50.4938 34.0422C50.3367 34.1631 50.2581 34.3338 50.2581 34.5471C50.2581 34.7036 50.2867 34.8387 50.3438 34.9383C50.401 35.0378 50.501 35.1303 50.6367 35.2156C50.7795 35.3009 50.9938 35.3934 51.2794 35.4929C51.758 35.6636 52.0936 35.8485 52.2722 36.0405C52.4579 36.2396 52.5507 36.4957 52.5507 36.8086ZM58.0858 38.0246H57.4573L55.786 35.8058L55.3075 36.2325V38.0246H54.7719V33.4591H55.3075V35.7276L57.3858 33.4591H58.0143L56.1717 35.4432L58.0858 38.0246ZM62.8923 38.0246L62.321 36.5739H60.4783L59.9141 38.0246H59.3713L61.1854 33.4378H61.6353L63.4422 38.0246H62.8923ZM62.1495 36.0903L61.6139 34.6751C61.5425 34.4974 61.4711 34.2769 61.3996 34.0138C61.3568 34.2129 61.2854 34.4333 61.1997 34.6751L60.6569 36.0903H62.1495ZM66.7704 38.0246H66.2348V33.9284H64.7849V33.4591H68.2274V33.9284H66.7776V38.0246H66.7704ZM72.7625 38.0246H70.2057V33.4591H72.7625V33.9284H70.7414V35.4005H72.6411V35.8699H70.7414V37.5481H72.7625V38.0246ZM75.0694 33.452H76.3693C76.9763 33.452 77.4191 33.5444 77.6905 33.7222C77.9619 33.9 78.0976 34.1916 78.0976 34.5827C78.0976 34.8529 78.0191 35.0805 77.8691 35.2512C77.7191 35.4289 77.4977 35.5427 77.2049 35.5925V35.621C77.8976 35.7418 78.2476 36.1045 78.2476 36.7161C78.2476 37.1215 78.1119 37.4415 77.8334 37.669C77.5548 37.8966 77.1692 38.0104 76.6692 38.0104H75.0694V33.452ZM75.5979 35.4076H76.4764C76.8549 35.4076 77.1263 35.3507 77.2906 35.2298C77.4548 35.1089 77.5405 34.9098 77.5405 34.6325C77.5405 34.3765 77.4477 34.1916 77.262 34.0778C77.0763 33.964 76.7835 33.9071 76.3835 33.9071H75.5979V35.4076ZM75.5979 35.8627V37.5695H76.5549C76.9263 37.5695 77.2049 37.4984 77.3906 37.3561C77.5763 37.2139 77.6691 36.9863 77.6691 36.6877C77.6691 36.4032 77.5762 36.197 77.3834 36.0619C77.1906 35.9267 76.9049 35.8627 76.5121 35.8627H75.5979ZM84.504 35.7347C84.504 36.4672 84.3183 37.0432 83.9469 37.4628C83.5755 37.8824 83.0613 38.0886 82.3971 38.0886C81.7186 38.0886 81.1972 37.8824 80.833 37.4699C80.4688 37.0575 80.2831 36.4743 80.2831 35.7276C80.2831 34.9809 80.4688 34.4049 80.833 33.9996C81.1972 33.5871 81.7257 33.3809 82.4042 33.3809C83.0613 33.3809 83.5755 33.5871 83.9469 34.0067C84.3183 34.4262 84.504 34.9952 84.504 35.7347ZM80.8473 35.7347C80.8473 36.3534 80.9758 36.8228 81.2401 37.1428C81.5043 37.4628 81.89 37.6193 82.3971 37.6193C82.9042 37.6193 83.2898 37.4628 83.547 37.1428C83.8041 36.8228 83.9326 36.3534 83.9326 35.7347C83.9326 35.1232 83.8041 34.6538 83.547 34.3409C83.2898 34.0209 82.9042 33.8644 82.4042 33.8644C81.8972 33.8644 81.5115 34.028 81.2401 34.348C80.9758 34.6538 80.8473 35.1232 80.8473 35.7347ZM89.6962 38.0246L89.1249 36.5739H87.2822L86.718 38.0246H86.1752L87.9893 33.4378H88.4392L90.2461 38.0246H89.6962ZM88.9606 36.0903L88.4321 34.6751C88.3607 34.4974 88.2892 34.2769 88.2178 34.0138C88.1678 34.2129 88.1035 34.4333 88.0178 34.6751L87.4751 36.0903H88.9606ZM92.703 36.1259V38.0246H92.1673V33.4591H93.4243C93.9886 33.4591 94.4028 33.5658 94.667 33.7791C94.9384 33.9924 95.0741 34.3196 95.0741 34.7463C95.0741 35.3507 94.767 35.7561 94.1528 35.9694L95.3955 38.0246H94.767L93.66 36.1259H92.703ZM92.703 35.6636H93.4315C93.81 35.6636 94.0814 35.5925 94.2599 35.4432C94.4385 35.2938 94.5242 35.0663 94.5242 34.7747C94.5242 34.476 94.4313 34.2556 94.2528 34.1204C94.0742 33.9853 93.7886 33.9213 93.3958 33.9213H92.703V35.6636ZM101.088 35.6921C101.088 36.4459 100.881 37.0219 100.466 37.4201C100.059 37.8184 99.4664 38.0175 98.6951 38.0175H97.4238V33.452H98.8308C99.545 33.452 100.102 33.6511 100.495 34.0422C100.895 34.4405 101.088 34.988 101.088 35.6921ZM100.523 35.7134C100.523 35.116 100.373 34.668 100.074 34.3693C99.7736 34.0707 99.3308 33.9142 98.738 33.9142H97.9595V37.5624H98.6094C99.2451 37.5624 99.7236 37.4059 100.045 37.1001C100.366 36.7872 100.523 36.325 100.523 35.7134ZM105.994 36.8086C105.994 37.2139 105.844 37.5268 105.551 37.7473C105.259 37.9748 104.859 38.0815 104.359 38.0815C103.816 38.0815 103.395 38.0104 103.102 37.8753V37.3632C103.287 37.4415 103.495 37.5055 103.716 37.5481C103.937 37.5908 104.159 37.6193 104.373 37.6193C104.73 37.6193 104.994 37.5553 105.173 37.4201C105.351 37.285 105.444 37.1001 105.444 36.8583C105.444 36.7019 105.409 36.5739 105.344 36.4743C105.28 36.3748 105.173 36.2752 105.023 36.1899C104.873 36.1045 104.644 36.005 104.344 35.8983C103.916 35.749 103.609 35.5641 103.43 35.3578C103.252 35.1516 103.159 34.8743 103.159 34.54C103.159 34.1844 103.295 33.9071 103.559 33.7009C103.823 33.4946 104.173 33.388 104.616 33.388C105.073 33.388 105.494 33.4733 105.873 33.6369L105.709 34.0991C105.33 33.9427 104.959 33.8644 104.602 33.8644C104.316 33.8644 104.102 33.9284 103.937 34.0422C103.78 34.1631 103.702 34.3338 103.702 34.5471C103.702 34.7036 103.73 34.8387 103.787 34.9383C103.844 35.0378 103.944 35.1303 104.08 35.2156C104.223 35.3009 104.43 35.3934 104.723 35.4929C105.201 35.6636 105.537 35.8485 105.716 36.0405C105.901 36.2396 105.994 36.4957 105.994 36.8086Z" fill="#020203"/>
</svg>
