<svg width="32" height="32" viewBox="0 0 32 32" fill="none" xmlns="http://www.w3.org/2000/svg">
<path d="M30.8015 6.98384C30.6754 6.8152 30.4994 6.69066 30.2984 6.62797C30.0974 6.56528 29.8817 6.56764 29.6822 6.63471C28.4555 7.0472 27.1808 7.2999 25.8895 7.38654C25.1605 6.36026 24.1271 5.58926 22.9357 5.18267C21.7443 4.77608 20.4552 4.75451 19.2509 5.121C18.0465 5.48749 16.988 6.22348 16.225 7.2248C15.462 8.22611 15.0333 9.44203 14.9995 10.7004C13.0483 10.3043 11.1958 9.52268 9.55053 8.40136C7.90526 7.28005 6.50037 5.84162 5.41819 4.17036C5.31318 4.00901 5.16383 3.8814 4.98808 3.80285C4.81233 3.7243 4.61764 3.69815 4.42738 3.72754C4.23713 3.75693 4.0594 3.84061 3.91554 3.96853C3.77168 4.09644 3.6678 4.26317 3.61637 4.44868C2.73756 7.62529 2.79963 10.9887 3.79505 14.1307C4.79047 17.2727 6.67644 20.0583 9.2241 22.1494C7.08036 23.3292 4.67955 23.9641 2.23283 23.9984C2.0124 24.0017 1.79924 24.0777 1.62644 24.2146C1.45364 24.3515 1.33087 24.5416 1.27719 24.7554C1.22352 24.9692 1.24193 25.1948 1.32959 25.3971C1.41724 25.5994 1.56922 25.767 1.76194 25.8741C4.26828 27.2616 7.08456 27.9933 9.94931 28.0014C12.8141 28.0095 15.6344 27.2936 18.1485 25.9203C20.6627 24.5469 22.789 22.5606 24.3303 20.1458C25.8715 17.731 26.7776 14.9658 26.9645 12.1072C28.4569 11.0097 29.7592 9.67501 30.8198 8.1562C30.9406 7.98374 31.0038 7.77756 31.0005 7.56705C30.9972 7.35654 30.9276 7.15244 30.8015 6.98384Z" fill="white"/>
</svg>
