<svg width="32" height="32" viewBox="0 0 32 32" fill="none" xmlns="http://www.w3.org/2000/svg">
<path d="M28.8339 8.34318C28.5883 6.79594 27.1737 5.44389 25.6083 5.26456C19.2198 4.56837 12.7745 4.56855 6.38599 5.26511C4.82618 5.44382 3.41163 6.79575 3.16468 8.34879C2.38816 13.422 2.38847 18.5838 3.1656 23.657C3.41157 25.2043 4.82618 26.5562 6.39124 26.7354C9.58225 27.0835 12.7898 27.2578 15.9998 27.2575C19.2097 27.2578 22.4173 27.0835 25.6083 26.7354L25.6134 26.7348C27.1735 26.5563 28.5881 25.2043 28.8348 23.6512C29.6114 18.578 29.6111 13.4162 28.8339 8.34318ZM20.5545 16.832L14.5545 20.832C14.4039 20.9324 14.2288 20.99 14.048 20.9988C13.8673 21.0075 13.6875 20.967 13.5279 20.8816C13.3683 20.7962 13.2349 20.6691 13.1419 20.5138C13.0489 20.3586 12.9998 20.181 12.9998 20V12C12.9998 11.819 13.0489 11.6414 13.1419 11.4861C13.2349 11.3308 13.3683 11.2037 13.5279 11.1183C13.6875 11.0329 13.8673 10.9924 14.048 11.0012C14.2288 11.0099 14.4039 11.0676 14.5545 11.1679L20.5545 15.1679C20.6914 15.2593 20.8037 15.383 20.8814 15.5281C20.9591 15.6733 20.9998 15.8354 20.9998 16C20.9998 16.1646 20.9591 16.3267 20.8814 16.4718C20.8037 16.617 20.6914 16.7407 20.5545 16.832Z" fill="white"/>
</svg>
